<?xml version="1.0" standalone="no"?>
<!DOCTYPE svg PUBLIC "-//W3C//DTD SVG 20010904//EN"
 "http://www.w3.org/TR/2001/REC-SVG-20010904/DTD/svg10.dtd">
<svg version="1.0" xmlns="http://www.w3.org/2000/svg"
 width="343.000000pt" height="160.000000pt" viewBox="0 0 343.000000 160.000000"
 preserveAspectRatio="xMidYMid meet">

<g transform="translate(0.000000,160.000000) scale(0.100000,-0.100000)"
fill="#000000" stroke="none">
<path d="M702 1373 c2 -10 10 -18 18 -18 8 0 16 8 18 18 2 12 -3 17 -18 17
-15 0 -20 -5 -18 -17z"/>
<path d="M1207 1324 c-14 -15 -6 -34 14 -34 14 0 19 5 17 17 -3 18 -20 27 -31
17z"/>
<path d="M906 1221 c-10 -16 5 -42 23 -39 21 4 21 42 -1 46 -9 2 -19 -1 -22
-7z"/>
<path d="M616 1128 c-7 -36 7 -126 24 -157 15 -30 67 -69 100 -76 45 -10 71
-76 90 -223 9 -69 13 -78 30 -67 7 4 8 24 4 55 -6 46 -5 50 33 91 l40 42 43
-34 c38 -31 48 -34 105 -34 54 0 70 4 107 30 53 38 103 113 153 228 28 67 34
92 26 100 -8 8 -63 12 -164 12 -138 0 -156 -2 -193 -22 -49 -26 -92 -74 -100
-111 -3 -15 -7 -32 -9 -38 -2 -6 1 -32 7 -58 10 -47 10 -48 -27 -81 -20 -19
-37 -29 -39 -22 -1 7 -12 41 -23 77 -15 47 -19 81 -16 121 4 39 1 65 -10 86
-17 33 -107 98 -148 108 -24 6 -27 3 -33 -27z m78 -17 c44 -27 77 -76 83 -122
13 -93 -69 -84 -118 13 -21 41 -26 128 -8 128 7 0 26 -9 43 -19z m643 -55 c10
-10 -65 -167 -105 -221 -71 -95 -165 -118 -234 -56 l-31 28 31 22 31 22 40
-21 c22 -11 45 -20 51 -20 20 0 9 20 -20 35 -16 9 -30 19 -30 23 0 4 36 29 80
56 44 27 83 53 86 58 14 22 -11 20 -56 -5 -59 -33 -60 -33 -60 -2 0 14 -4 25
-10 25 -5 0 -10 -16 -10 -35 0 -33 -5 -39 -70 -81 -39 -25 -75 -42 -80 -39
-15 9 -12 102 5 135 20 38 65 69 117 80 45 10 255 7 265 -4z"/>
<path d="M450 1111 c0 -24 25 -34 40 -16 15 18 5 35 -21 35 -12 0 -19 -7 -19
-19z"/>
<path d="M417 1024 c-14 -15 -6 -34 14 -34 14 0 19 5 17 17 -3 18 -20 27 -31
17z"/>
<path d="M1950 911 c0 -18 -6 -21 -50 -21 -47 0 -50 -2 -50 -25 0 -16 6 -25
15 -25 8 0 15 4 15 9 0 6 21 11 48 13 45 3 47 4 47 32 0 16 -6 31 -12 34 -8 2
-13 -5 -13 -17z"/>
<path d="M2143 911 c-4 -17 -13 -21 -48 -21 -35 0 -44 -4 -48 -21 -6 -22 20
-40 32 -21 3 6 27 12 51 14 42 3 45 5 45 32 0 35 -24 47 -32 17z"/>
<path d="M2240 925 c0 -6 60 -127 66 -134 2 -2 7 -2 10 2 8 8 -55 137 -67 137
-5 0 -9 -2 -9 -5z"/>
<path d="M2360 801 c0 -81 -4 -131 -10 -131 -16 0 -11 -17 7 -24 33 -13 39 14
33 148 -3 91 -9 131 -17 134 -10 3 -13 -27 -13 -127z"/>
<path d="M2760 801 c0 -94 -3 -131 -12 -134 -10 -4 -9 -8 2 -16 30 -21 35 -4
38 137 2 122 0 142 -13 142 -13 0 -15 -20 -15 -129z"/>
<path d="M2860 919 c0 -17 62 -129 71 -129 13 0 12 5 -21 70 -29 58 -50 83
-50 59z"/>
<path d="M2980 802 c0 -116 -2 -131 -17 -134 -15 -3 -14 -6 6 -17 14 -8 27 -9
32 -4 15 15 7 275 -8 281 -10 3 -13 -27 -13 -126z"/>
<path d="M1738 865 c3 -39 0 -62 -11 -79 -15 -22 -15 -27 3 -65 25 -50 25 -51
0 -51 -29 0 -25 -18 6 -26 40 -10 51 9 31 52 -15 31 -16 40 -4 77 17 51 11
110 -12 131 -17 15 -17 13 -13 -39z"/>
<path d="M2561 878 c12 -24 24 -37 27 -30 6 20 -18 72 -34 72 -11 0 -9 -10 7
-42z"/>
<path d="M2680 795 c0 -104 -2 -125 -15 -125 -20 0 -19 -16 1 -24 43 -16 44
-13 44 134 0 118 -2 140 -15 140 -13 0 -15 -21 -15 -125z"/>
<path d="M1532 886 c3 -16 0 -27 -9 -30 -19 -8 -7 -26 18 -26 25 0 35 25 21
56 -15 32 -36 31 -30 0z"/>
<path d="M3187 895 c4 -11 8 -53 8 -93 0 -71 -1 -75 -33 -103 -25 -23 -42 -29
-77 -29 -45 0 -60 -12 -29 -24 27 -10 73 -7 110 9 44 18 64 63 64 144 0 51 -4
64 -26 88 -19 20 -24 23 -17 8z"/>
<path d="M1431 881 c-23 -23 -35 -99 -22 -134 17 -44 31 -31 31 28 0 46 4 60
25 81 14 14 25 29 25 34 0 17 -39 11 -59 -9z"/>
<path d="M1630 846 c0 -43 3 -56 15 -56 11 0 15 11 15 40 0 30 4 40 16 40 26
0 9 25 -19 28 -26 3 -27 2 -27 -52z"/>
<path d="M3079 875 c0 -3 0 -38 -1 -77 0 -55 3 -73 13 -73 10 0 15 18 17 60 2
32 7 64 12 71 6 6 7 14 3 17 -7 8 -43 9 -44 2z"/>
<path d="M1924 816 c-4 -10 -18 -16 -41 -16 -34 0 -34 0 -31 -42 3 -48 28 -66
28 -21 0 26 5 31 38 39 27 6 37 14 37 28 0 24 -23 33 -31 12z"/>
<path d="M2120 815 c0 -10 -11 -15 -35 -15 -35 0 -35 0 -35 -45 0 -33 4 -45
15 -45 10 0 15 10 15 29 0 25 5 30 35 35 29 6 35 11 35 31 0 16 -6 25 -15 25
-8 0 -15 -7 -15 -15z"/>
<path d="M2605 780 c-13 -29 -15 -44 -8 -51 17 -17 31 -2 39 37 10 53 -9 62
-31 14z"/>
<path d="M2230 742 c0 -41 -4 -72 -10 -72 -16 0 -11 -17 7 -24 25 -10 31 3 35
71 2 49 -1 66 -15 80 -16 16 -17 14 -17 -55z"/>
<path d="M2530 740 c0 -56 -3 -70 -15 -70 -8 0 -15 -4 -15 -9 0 -14 40 -25 51
-14 15 15 22 106 10 136 -18 48 -31 31 -31 -43z"/>
<path d="M2850 743 c0 -48 -4 -73 -12 -76 -10 -3 -10 -7 -1 -17 6 -7 19 -10
27 -7 22 9 22 125 1 153 -13 17 -14 13 -15 -53z"/>
<path d="M1540 730 l0 -62 -65 4 c-53 2 -62 1 -51 -10 7 -8 40 -14 77 -15 l64
-2 0 69 c0 47 -4 71 -12 74 -10 3 -13 -13 -13 -58z"/>
<path d="M1480 750 c0 -5 5 -10 11 -10 5 0 7 5 4 10 -3 6 -8 10 -11 10 -2 0
-4 -4 -4 -10z"/>
<path d="M1630 711 c0 -30 -4 -41 -15 -41 -22 0 -18 -18 6 -25 28 -9 37 2 41
55 2 36 0 45 -14 48 -15 3 -18 -4 -18 -37z"/>
<path d="M1950 685 c0 -12 -14 -15 -70 -15 -39 0 -70 -4 -70 -10 0 -15 39 -21
105 -18 57 3 60 4 63 31 2 19 -1 27 -12 27 -9 0 -16 -7 -16 -15z"/>
<path d="M2150 685 c0 -12 -14 -15 -70 -15 -39 0 -70 -4 -70 -10 0 -15 39 -21
105 -18 57 3 60 4 63 31 2 19 -1 27 -12 27 -9 0 -16 -7 -16 -15z"/>
<path d="M1168 579 c-92 -46 -119 -69 -83 -69 9 0 55 20 104 45 95 48 121 54
141 30 27 -33 -3 -58 -191 -160 l-184 -99 -181 -6 c-193 -7 -205 -10 -257 -68
-36 -40 -7 -43 40 -5 l45 37 181 6 182 6 180 98 c99 53 188 105 197 114 31 31
33 68 4 96 -36 37 -66 32 -178 -25z"/>
<path d="M1690 486 c0 -93 3 -118 16 -131 9 -9 23 -14 31 -11 8 3 17 6 19 6 2
0 4 24 4 53 l1 52 24 -46 c29 -56 47 -72 77 -67 22 3 23 7 26 116 3 119 -6
148 -46 140 -13 -2 -18 -16 -22 -58 l-5 -55 -13 35 c-18 49 -50 80 -84 80
l-28 0 0 -114z"/>
<path d="M1920 485 c0 -134 6 -145 80 -145 59 0 80 7 80 27 0 22 -30 42 -63
43 -40 0 -29 24 12 28 18 2 35 10 38 18 8 21 -25 54 -54 54 -12 0 -23 5 -23
10 0 6 28 10 65 10 l65 0 0 -75 c0 -86 20 -123 59 -110 19 6 21 14 21 96 0 81
2 89 19 89 22 0 27 -12 37 -95 5 -41 13 -65 27 -77 34 -30 77 -20 77 17 0 13
5 27 10 30 6 3 10 -1 10 -11 0 -20 37 -54 59 -54 31 0 40 16 47 80 l8 65 13
-47 c24 -82 96 -119 166 -87 66 30 70 165 7 222 -38 34 -104 38 -142 7 -25
-19 -25 -19 -44 1 -26 29 -58 21 -62 -16 -5 -53 -10 -60 -30 -41 -24 21 -68
21 -81 -1 -9 -15 -10 -13 -11 13 0 59 -16 64 -213 63 l-177 0 0 -114z m726 19
c14 -56 -32 -123 -57 -82 -12 18 -11 65 1 89 16 28 48 24 56 -7z"/>
<path d="M2740 487 c0 -102 2 -116 21 -133 27 -24 53 -9 57 35 4 40 13 39 36
-4 20 -37 59 -56 78 -37 7 7 4 19 -11 40 -26 37 -26 38 -1 69 23 29 25 51 9
86 -17 38 -60 57 -128 57 l-61 0 0 -113z m115 27 c0 -10 -8 -20 -17 -22 -18
-3 -26 27 -11 42 12 11 28 0 28 -20z"/>
<path d="M2967 593 c-4 -3 -7 -53 -7 -110 0 -88 3 -107 19 -124 31 -34 61 -17
61 34 l1 42 40 -47 c40 -47 61 -56 87 -39 10 6 3 20 -27 59 -23 28 -41 55 -41
60 0 5 16 29 35 54 32 44 33 46 16 62 -28 25 -57 19 -82 -16 -16 -22 -24 -27
-27 -17 -12 37 -56 62 -75 42z"/>
<path d="M610 580 c-48 -9 -57 -15 -150 -98 -71 -65 -89 -92 -60 -92 4 0 41
31 81 68 41 38 84 74 97 81 16 9 70 10 200 6 97 -3 187 -8 199 -11 34 -7 48
-40 28 -70 -15 -23 -20 -24 -125 -24 -67 0 -110 -4 -110 -10 0 -6 45 -10 114
-10 112 0 115 1 135 26 26 33 26 55 2 85 -18 22 -28 24 -153 30 -73 3 -140 8
-148 11 -28 12 -75 15 -110 8z"/>
</g>
</svg>
